<svg width="95" height="80" viewBox="0 0 95 80" fill="none" xmlns="http://www.w3.org/2000/svg">
<path d="M38.9885 59.7004L52.3885 60.9004C53.1885 61.0004 53.8885 60.3004 53.8885 59.5004V53.2004C53.8885 52.8004 54.1885 52.5004 54.5885 52.5004H59.2885C60.6885 52.5004 61.8885 51.3004 61.8885 49.9004V43.6004C61.8885 43.3004 62.0885 43.1004 62.3885 43.1004H64.6885C66.0885 43.1004 66.8885 41.6004 66.1885 40.4004L62.1885 34.3004C61.9885 33.9004 61.8885 33.5004 61.7885 33.1004C61.0885 25.1004 54.3885 18.9004 46.2885 18.9004C37.6885 18.9004 30.6885 25.9004 30.6885 34.5004C30.6885 39.6004 33.1885 44.6004 36.9885 47.9004C37.4885 48.3004 37.6885 48.8004 37.6885 49.4004V58.3004C37.6885 59.0004 38.2885 59.6004 38.9885 59.7004Z" fill="black"/>
<path d="M68.8885 64.9996C62.8885 70.0996 55.2885 72.7996 47.4885 72.7996C29.1885 72.7996 14.2885 57.8996 14.2885 39.5996V36.7996H19.5885C20.5885 36.7996 21.4885 36.2996 21.8885 35.3996C22.3885 34.5996 22.2885 33.4996 21.7885 32.6996L13.2885 19.5996C12.2885 18.0996 9.78854 18.0996 8.88854 19.5996L0.388544 32.6996C-0.111456 33.5996 -0.111456 34.5996 0.288544 35.3996C0.788544 36.1996 1.68854 36.7996 2.58854 36.7996H7.88854V39.5996C7.88854 61.3996 25.6885 79.1996 47.4885 79.1996C56.8885 79.1996 65.8885 75.8996 73.0885 69.7996C74.4885 68.6996 74.5885 66.5996 73.4885 65.2996C72.2885 63.9996 70.2885 63.7996 68.8885 64.9996Z" fill="black"/>
<path d="M94.6881 43.8C94.1881 43 93.2881 42.4 92.3881 42.4H87.0881V39.6C87.0881 17.8 69.2881 0 47.4881 0C38.0881 0 29.0881 3.3 21.8881 9.4C20.4881 10.5 20.3881 12.6 21.4881 13.9C22.5881 15.3 24.6881 15.4 25.9881 14.3C31.9881 9.2 39.5881 6.5 47.3881 6.5C65.6881 6.5 80.5881 21.4 80.5881 39.7V42.5H75.2881C74.2881 42.5 73.3881 43 72.9881 43.9C72.4881 44.7 72.5881 45.8 73.0881 46.6L81.6881 59.6C82.1881 60.4 82.9881 60.8 83.8881 60.8C84.7881 60.8 85.5881 60.3 86.0881 59.6L94.5881 46.4C95.0881 45.6 95.0881 44.6 94.6881 43.8Z" fill="black"/>
</svg>
