<svg xmlns="http://www.w3.org/2000/svg" width="137" height="30" fill="none" viewBox="0 0 137 30">
    <g clip-path="url(#clip0)">
        <path fill="url(#paint0_linear)" d="M10.988 21.764h-.644v4.354h13.442l2.912 2.904H7.433V18.859h9.074l2.913 2.905h-8.432z"/>
        <path fill="url(#paint1_linear)" d="M3.832 2.902L.922 0h14.223v14.184l-2.91-2.902V2.905h-8.4l-.003-.003z"/>
        <path fill="url(#paint2_linear)" d="M22.467 8.6h-.644v12.244L18.91 17.94V5.697h10.189v22.406L26.187 25.2V8.6h-3.722.002z"/>
        <path fill="url(#paint3_linear)" d="M26.699 29.025H5.713V18.859h10.795l10.19 10.166z"/>
        <path fill="url(#paint4_linear)" d="M2.913 11.56v.642h6.922l2.91 2.902H.002V2.395L2.913 5.3v6.26z"/>
        <path fill="url(#paint5_linear)" d="M15.146 14.195L.922 0h14.224v14.195z"/>
        <path fill="#353535" d="M43.28 10.25h6.023v.661H43.28v13.364c-.032.595.14 1.183.487 1.668.224.32.528.575.882.74.354.166.745.235 1.135.202 1.573.029 2.469-1.418 2.469-3.414l1.622 1.256c-.841 2.271-2.69 3.061-6.861 3.091-.6.046-1.204-.03-1.775-.224-.57-.193-1.095-.5-1.543-.9-.473-.479-.8-1.08-.945-1.737-.19-.942-.273-1.901-.25-2.861V10.91h-2.786v-.66h2.787V5.883c1.655.041 3.295-.322 4.777-1.058v5.425z"/>
        <path fill="#353535" d="M53.013 13.09c.995-2.052 2.797-3.077 5.407-3.077.666-.07 1.34.008 1.97.232.632.223 1.206.584 1.679 1.057.401.471.68 1.034.813 1.638.185.875.268 1.768.248 2.663v8.9c-.069.658.096 1.32.465 1.87.226.194.49.34.776.428.285.088.586.117.883.084v.698c-2.301-.089-3.76-.133-4.38-.133-.752 0-2.19.044-4.312.133v-.698c.256.028.515-.004.757-.093.241-.089.46-.233.636-.42.321-.567.46-1.22.4-1.869V14.215c.045-.712-.11-1.423-.448-2.052-.184-.246-.43-.44-.712-.563-.282-.122-.591-.169-.897-.135-.446-.006-.887.088-1.292.274-.404.186-.762.46-1.046.802-.646.76-.984 1.734-.946 2.73v9.23c-.062.65.078 1.302.4 1.87.176.186.394.33.636.419.241.089.5.12.757.093v.698c-2.124-.089-3.495-.133-4.113-.133-.752 0-2.278.044-4.578.133v-.698c.294.03.591 0 .873-.088.283-.088.544-.233.769-.425.38-.545.55-1.208.48-1.869V5.677c.06-.77-.108-1.54-.48-2.217-.193-.245-.445-.437-.732-.56-.287-.121-.6-.17-.91-.138v-.698c.707.066 1.393.1 2.057.1 1.627.03 3.251-.126 4.843-.465l-.003 11.39zM79.353 10.905c.51.6.782 1.365.764 2.15.03.734-.226 1.451-.714 2.002-.237.257-.528.46-.851.594-.324.135-.673.197-1.024.184-.648.035-1.287-.172-1.791-.58-.22-.19-.392-.427-.507-.694-.115-.266-.168-.554-.157-.844 0-.519.133-1.03.389-1.482.255-.452.624-.83 1.07-1.098-.131-.026-.265-.037-.4-.033-.179-.005-.358.017-.53.066-.446.085-.867.266-1.236.529-.37.262-.677.601-.903.993-.56.796-.866 1.741-.88 2.713v8.767c-.044.386 0 .777.13 1.144.128.367.34.7.616.973.702.456 1.536.666 2.372.599v.698c-.255.003-.51-.009-.763-.034-2.256-.067-3.76-.1-4.511-.1-.6 0-1.96.033-4.08.1-.22.025-.442.036-.663.034v-.698c.296.032.597.004.882-.084.285-.088.55-.234.775-.429.37-.55.533-1.211.465-1.869V14.082c.057-.768-.104-1.536-.465-2.216-.193-.248-.447-.442-.737-.565-.29-.122-.607-.168-.92-.133v-.698c.706.066 1.392.1 2.057.1 1.627.034 3.252-.122 4.843-.465v3.079c.392-.914 1.022-1.708 1.825-2.3.775-.577 1.719-.885 2.686-.876.42-.03.841.036 1.232.191.391.156.742.397 1.026.706zM88.153 24.504c-.07.66.1 1.324.48 1.87.225.191.486.336.768.424.283.088.58.118.874.088v.698c-2.211-.089-3.682-.133-4.413-.133-.685 0-2.222.044-4.61.133v-.698c.297.033.598.004.883-.084.285-.088.55-.234.775-.429.37-.55.533-1.21.464-1.869V14.086c.057-.768-.103-1.536-.464-2.216-.193-.248-.447-.442-.737-.565-.29-.122-.607-.168-.92-.133v-.699c.706.066 1.393.1 2.056.1 1.628.035 3.253-.12 4.844-.463v14.394zm-.21-20.75c.019.573-.134 1.138-.439 1.623-.305.485-.748.868-1.273 1.1-.524.232-1.106.303-1.671.203-.565-.1-1.088-.366-1.5-.764-.413-.398-.696-.91-.815-1.47-.12-.56-.068-1.142.147-1.673.216-.53.585-.985 1.06-1.305.477-.32 1.038-.49 1.611-.49.751-.013 1.477.273 2.016.794.54.52.85 1.234.863 1.983zM97.321 27.08h1.725c.661.017 1.319-.098 1.935-.338.616-.24 1.177-.6 1.651-1.059 1.105-1.247 1.721-2.85 1.736-4.513h.7c-.007 3.132.032 5.316.117 6.551-1.79-.093-3.913-.142-6.369-.147-2.168-.005-4.468.045-6.9.148l8.334-16.754h-1.858c-3.163-.008-4.893 1.962-5.189 5.91h-.7c.008-3.132-.031-5.316-.117-6.552 1.792.093 3.915.143 6.37.149 2.167.005 4.467-.045 6.899-.15L97.321 27.08zM120.872 22.683l.6.2c-.432 1.416-1.253 2.683-2.372 3.656-1.18 1.018-2.703 1.555-4.263 1.505-1.038.049-2.074-.125-3.038-.51-.965-.386-1.835-.973-2.552-1.723-1.382-1.489-2.074-3.689-2.074-6.6 0-2.978.741-5.255 2.223-6.832.759-.79 1.678-1.41 2.697-1.818 1.018-.408 2.112-.595 3.208-.547 4.158 0 6.236 2.448 6.236 7.345h-9.322c-.022.332-.033.85-.033 1.554-.038 1.242.171 2.48.613 3.64.313.846.867 1.582 1.593 2.118.618.43 1.353.66 2.106.661.902-.006 1.785-.256 2.555-.722.771-.466 1.401-1.132 1.823-1.927zm-7.746-10.503c-.626 1.436-.958 2.982-.979 4.549h5.208c.08-1.458-.093-2.918-.514-4.317-.386-1.137-.967-1.705-1.742-1.704-.436.03-.854.185-1.205.446-.35.261-.618.617-.771 1.026h.003zM136.237 10.905c.509.6.781 1.365.762 2.15.03.734-.226 1.451-.713 2.002-.237.257-.528.46-.852.595-.323.134-.673.196-1.023.183-.648.035-1.287-.172-1.791-.58-.219-.19-.392-.427-.507-.693-.114-.266-.168-.555-.156-.844-.001-.52.133-1.03.388-1.483.256-.452.625-.83 1.071-1.098-.132-.026-.266-.037-.4-.033-.179-.005-.358.017-.531.066-.445.086-.866.266-1.236.53-.369.262-.677.6-.903.993-.558.796-.864 1.74-.879 2.712v8.767c-.044.386 0 .777.13 1.144.129.367.34.7.616.973.703.456 1.537.667 2.372.599v.698c-.255.003-.509-.009-.763-.034-2.256-.067-3.76-.1-4.511-.1-.6 0-1.96.033-4.081.1-.22.025-.441.037-.663.034v-.698c.297.033.598.004.883-.084.286-.088.55-.234.776-.429.369-.55.533-1.21.464-1.869V14.082c.057-.768-.104-1.536-.464-2.216-.194-.248-.448-.442-.738-.565-.291-.122-.608-.168-.921-.133v-.698c.707.066 1.393.1 2.057.1 1.627.034 3.252-.122 4.843-.465v3.08c.393-.915 1.022-1.71 1.824-2.3.776-.578 1.719-.886 2.687-.877.42-.03.841.036 1.232.191.391.156.742.397 1.027.706z"/>
    </g>
    <defs>
        <linearGradient id="paint0_linear" x1="17.065" x2="17.065" y1="18.859" y2="29.022" gradientUnits="userSpaceOnUse">
            <stop stop-color="#A94BF3"/>
            <stop offset="1" stop-color="#00B0F0"/>
        </linearGradient>
        <linearGradient id="paint1_linear" x1="8.033" x2="8.033" y1="0" y2="14.184" gradientUnits="userSpaceOnUse">
            <stop stop-color="#A94BF3"/>
            <stop offset="1" stop-color="#00B0F0"/>
        </linearGradient>
        <linearGradient id="paint2_linear" x1="24.004" x2="24.004" y1="5.697" y2="28.103" gradientUnits="userSpaceOnUse">
            <stop offset=".5" stop-color="#B765F8"/>
            <stop offset="1" stop-color="#A634FF"/>
        </linearGradient>
        <linearGradient id="paint3_linear" x1="16.206" x2="16.206" y1="18.859" y2="29.025" gradientUnits="userSpaceOnUse">
            <stop offset=".5" stop-color="#B765F8"/>
            <stop offset="1" stop-color="#A634FF"/>
        </linearGradient>
        <linearGradient id="paint4_linear" x1="6.374" x2="6.374" y1="2.395" y2="15.104" gradientUnits="userSpaceOnUse">
            <stop offset=".51" stop-color="#3CC9FD"/>
            <stop offset="1" stop-color="#00ABE9"/>
        </linearGradient>
        <linearGradient id="paint5_linear" x1="8.034" x2="8.034" y1="0" y2="14.195" gradientUnits="userSpaceOnUse">
            <stop offset=".51" stop-color="#3CC9FD"/>
            <stop offset="1" stop-color="#00ABE9"/>
        </linearGradient>
        <clipPath id="clip0">
            <path fill="#fff" d="M0 0H137V29.022H0z"/>
        </clipPath>
    </defs>
</svg>
